<?xml version="1.0" standalone="no"?>
<!DOCTYPE svg PUBLIC "-//W3C//DTD SVG 20010904//EN"
 "http://www.w3.org/TR/2001/REC-SVG-20010904/DTD/svg10.dtd">
<svg version="1.0" xmlns="http://www.w3.org/2000/svg"
 width="220.000000pt" height="220.000000pt" viewBox="0 0 220.000000 220.000000"
 preserveAspectRatio="xMidYMid meet">
<metadata>
Created by potrace 1.15, written by Peter Selinger 2001-2017
</metadata>
<g transform="translate(0.000000,220.000000) scale(0.100000,-0.100000)"
fill="#000000" stroke="none">
<path d="M285 1271 c-68 -31 -100 -102 -71 -158 17 -35 66 -78 97 -88 19 -6
21 -13 17 -61 -4 -41 -1 -54 9 -54 9 0 13 16 13 54 0 46 3 54 21 59 12 3 35 3
50 0 28 -5 29 -8 29 -59 0 -30 5 -54 10 -54 6 0 10 48 10 125 0 72 -4 125 -10
125 -5 0 -10 -26 -12 -57 l-3 -58 -45 0 -45 0 -3 58 c-2 38 -7 57 -15 54 -7
-2 -10 -23 -8 -55 2 -47 1 -52 -19 -52 -35 0 -80 53 -80 95 0 99 66 147 154
110 14 -6 17 -4 14 11 -5 26 -62 29 -113 5z"/>
</g>
</svg>
